<svg id="Layer_1" data-name="Layer 1" xmlns="http://www.w3.org/2000/svg" viewBox="0 0 81.06 86"><defs><style>.cls-1{fill:#fff;}</style></defs><title>chat</title><path class="cls-1" d="M59.43,81.06C52.64,84.64,45.72,86,37.44,86,17.17,86,0,71.17,0,47.45,0,22,17.67,0,45.1,0c21.5,0,36,15.08,36,35.71,0,18.54-10.38,29.4-22,29.4-5,0-9.52-3.33-9.15-10.86h-.49C45.1,61.53,39.42,65.11,32,65.11c-7.16,0-13.34-5.8-13.34-15.56A29.18,29.18,0,0,1,47.94,20.26a32.45,32.45,0,0,1,13.22,2.6L57,45.22c-1.85,9.4-.37,13.72,3.71,13.85C67,59.19,74,50.79,74,36.45,74,18.53,63.26,5.68,44.11,5.68,24,5.68,7,21.62,7,46.71,7,67.35,20.51,80.07,38.79,80.07c7.05,0,13.6-1.48,18.67-4.32ZM52.64,27.68a21.4,21.4,0,0,0-6.18-.87c-10.87,0-19.65,10.26-19.65,22.25,0,5.43,2.72,9.38,8.16,9.38,7.16,0,13.71-9.14,15.07-16.8Z"/></svg>