<?xml version="1.0" encoding="utf-8"?>
<!-- Generator: Adobe Illustrator 24.0.1, SVG Export Plug-In . SVG Version: 6.00 Build 0)  -->
<svg version="1.1" id="Layer_1" xmlns="http://www.w3.org/2000/svg" xmlns:xlink="http://www.w3.org/1999/xlink" x="0px" y="0px"
	 viewBox="0 0 134.7 88.8" style="enable-background:new 0 0 134.7 88.8;" xml:space="preserve">
<style type="text/css">
	.st0{fill:#FFFFFF;}
</style>
<title>chat</title>
<path class="st0" d="M84,68.1c-7.7,0-10.6-5.3-10.5-11.7c-2.5,5.7-7.9,11.7-14.9,11.7C50.4,68.1,45,60.5,45,50
	c0-13.8,9.4-26.9,21-26.9c6.8,0,10.6,4.6,11.9,10.1l1.8-9.2c3,0.1,5.9-0.2,8.8-0.6l-6.6,32.3c-0.2,1.2-0.4,2.4-0.4,3.6
	c0,3.8,1.7,6.1,5.3,6.1c7.5,0,17.7-9.7,17.7-26c0-19.9-15.2-32.8-34.6-32.8c-21.7,0-39.8,16-39.8,40.3c0,23.9,17.4,35.3,35.2,35.3
	c7,0,14-1.7,20.1-5l0.7,1.3C81,81.7,73,83.9,65.1,83.9c-18.2,0-36.7-12-36.7-37c0-25.9,19.8-42,41.5-42c19.7,0,36.4,13.2,36.4,34.5
	C106.3,56.9,95.2,68.1,84,68.1z M68.2,25.7c-8.4,0-13.9,12.3-13.9,26.1c0,8.8,2.3,13.3,7.2,13.3c7.6,0,13.7-10.7,16-29.2
	C76.5,30.2,73.2,25.7,68.2,25.7z"/>
</svg>
