<?xml version="1.0" encoding="utf-8"?>
<!-- Generator: Adobe Illustrator 24.0.1, SVG Export Plug-In . SVG Version: 6.00 Build 0)  -->
<svg version="1.1" id="Layer_1" xmlns="http://www.w3.org/2000/svg" xmlns:xlink="http://www.w3.org/1999/xlink" x="0px" y="0px"
	 viewBox="0 0 235.6 95" style="enable-background:new 0 0 235.6 95;" xml:space="preserve">
<style type="text/css">
	.st0{fill:#FFFFFF;}
</style>
<title>designosource</title>
<g id="logo-02">
	<g id="Group_3">
		<path id="Path_1" class="st0" d="M153.3,72c0-3.1,0.5-6.3,1.4-9.2c2.3-6.6,7.9-10,15.2-9.4c8.5,0.9,15.7,6.6,18.4,14.7
			c0.3,1,0.3,1.5-0.9,1.8c-2.9,0.7-5.7,1.5-8.5,2.3c-0.9,0.3-1.3,0.2-1.7-0.8c-1.2-3.3-3.9-5.7-7.3-6.5c-2-0.6-4.1,0.4-5,2.2
			c-0.9,1.7-1.5,3.6-1.6,5.5c-0.3,2.6-0.1,5.2,0.6,7.6c0.7,2.7,3.3,4.6,6.1,4.5c3.3,0.1,6.4-1.9,7.7-5c0.1-0.4,0.4-0.7,0.9-0.7
			c3.5-0.5,6.9-1.5,10.4-2.2c1-0.2,1.2,0.1,1.1,1c-0.1,1.6-0.6,3.1-1.5,4.4c-5.3,8.3-19.2,11.5-27.5,6.3c-4.3-2.7-6.4-6.7-7.3-11.4
			C153.5,75.4,153.3,73.7,153.3,72z"/>
		<path id="Path_2" class="st0" d="M66.1,89.4c-6.3,0.1-11.2-2-14.7-7.1c-2.3-3.4-2.6-7.2-2-11.1c0.5-3.3,1.6-6.4,3.4-9.2
			c3.8-6,9.1-8.3,16.2-6.9c8,1.7,12.7,6.9,13.8,15.5c0.4,2.6,0.4,5.2-0.1,7.8c-1.4,5.9-5.3,9-11,10.3C69.8,89.1,68,89.3,66.1,89.4z
			 M73.6,72c0.1-2.2-0.4-4.3-1.5-6.2c-2.5-4.2-7.7-4.2-10.1,0.1c-1.6,2.9-2.2,6.2-1.7,9.4c0.5,3.4,2.5,5.3,5.6,5.6
			c3.1,0.3,5.9-1.5,6.9-4.4C73.4,75.1,73.7,73.5,73.6,72z"/>
		<path id="Path_3" class="st0" d="M150.4,87.8c-3.5-0.2-7.1,0.1-10.7,0.2c-0.7,0-0.8-0.3-1-0.8c-1.1-3-2.3-6.1-3.4-9.1
			c-0.2-0.4-0.1-1-0.6-1c-0.9-0.1-1.8-0.1-2.6,0.1c-0.3,0.1-0.2,0.7-0.3,1.1c-0.3,3-0.7,6-1,9c-0.1,0.7-0.2,1-1,0.9
			c-2.4-0.2-4.7-0.2-7.1-0.3c-0.7,0-1-0.2-0.9-1c0.8-6.3,1.2-12.7,0.9-19.1c-0.2-3.5-0.1-7,0.2-10.5c0-0.5,0-0.8,0.7-0.9
			c5.2-0.6,10.4-1.2,15.6-1.7c1.2-0.1,2.4-0.1,3.6,0.2c4.1,0.8,6.4,3.2,7.2,7.5c0.5,2.6,0.4,5.2-0.4,7.7c-0.6,2.1-2.1,3.9-4,4.9
			c-0.8,0.4-0.7,0.7-0.4,1.4c1.7,3.5,3.4,7.1,5.1,10.6C150.4,87.3,150.6,87.5,150.4,87.8z M132.4,66.6L132.4,66.6c0,0.6,0,1.1,0,1.7
			c-0.1,2.3-0.1,2.3,2.3,2.2c0.9,0,1.8-0.1,2.8-0.2c2.3-0.7,3.8-3.1,3.2-5.4c-0.4-2.1-1.9-3-4.4-2.8c-1,0.1-1.9,0.2-2.9,0.3
			c-0.7,0-0.9,0.3-0.9,1C132.5,64.4,132.4,65.5,132.4,66.6L132.4,66.6z"/>
		<path id="Path_4" class="st0" d="M90.3,55.8c1.3,0,2.7,0,4,0c0.5,0,0.8,0.1,0.8,0.7c-0.6,6.1,0.8,12.1,1.8,18
			c0.1,1,0.3,1.9,0.6,2.8c1.2,3.6,6.7,4.8,9.4,2.2c0.9-0.9,1.4-2.1,1.2-3.4c-0.3-2.9-0.7-5.8-1.1-8.7c-0.4-3.2-0.5-6.4-0.1-9.6
			c0.1-0.8,0.4-1.2,1.3-1c2.9,0.3,5.8,0.4,8.7,0.2c1.6,0,1.6,0,1.4,1.5c-0.3,4.3-0.3,8.7,0.1,13c0.1,2,0.1,3.9,0,5.9
			c-0.2,3.4-2.2,6.5-5.1,8.3c-4.9,3.2-11,4.2-16.7,2.7C91,87,88,83,87.2,77.5c-1.1-6.8-1.7-13.6-1.6-20.5c0-1,0.3-1.3,1.3-1.2
			S89.1,55.7,90.3,55.8L90.3,55.8z"/>
		<path id="Path_5" class="st0" d="M41.6,64.1c-1.4,0-2.8,0-4.2,0c-0.5,0-0.7-0.1-0.8-0.6c-0.1-0.9-0.7-1.7-1.5-2
			c-1.5-0.8-3.3-0.9-4.9-0.2c-1.1,0.4-1.9,1.5-1.9,2.7c0,1.3,1,1.8,2,2c2,0.5,4,0.8,6,1.2c1.6,0.3,3.2,0.8,4.7,1.5
			c3.7,1.8,5,4.6,4.2,8.6c-0.7,4.3-3.8,7.9-7.9,9.2c-4.3,1.5-9,1.8-13.5,0.8c-4.5-1-6.8-4.6-6.2-9.1c0.1-0.5,0.3-0.7,0.7-0.7
			c2.2,0,4.3-0.1,6.5-0.1c0.3,0,0.6,0,0.7,0.4c0.3,1.3,1.4,2.3,2.8,2.3c1.7,0.4,3.5,0.2,5.1-0.6c1-0.4,1.7-1.3,1.6-2.4
			c-0.1-1.2-1-1.6-1.9-1.9c-1.5-0.5-3.1-0.8-4.7-1c-7.7-1.2-10.8-6.7-7.9-14c1.9-4.6,5.4-7,10.2-7.4c3.6-0.4,7.2,0.3,10.4,1.9
			c3.2,1.6,5.3,4,5.4,7.8c0,0.9-0.2,1.4-1.2,1.3C44.2,64,42.8,64.1,41.6,64.1C41.6,64.1,41.6,64.1,41.6,64.1z"/>
		<path id="Path_6" class="st0" d="M201.9,89.4c-3,0-6.1,0-9.2,0c-0.9,0-1.1-0.2-0.8-1c0.8-2.9,1.4-5.9,1.6-8.9
			c0.3-4.5-0.7-8.8-1.6-13.2c-0.8-3.8-1.3-7.7-1.4-11.6c0-0.9,0.2-1.1,1.1-1.1c5.4,0,10.7,0.6,16,0.9c1.8,0.1,3.7,0.1,5.5,0.1
			c0.6,0,0.8,0.1,0.7,0.7c-0.4,2.3-0.5,4.6-0.4,6.8c0,0.8-0.2,0.9-0.9,0.9c-3.6,0-7.2-0.2-10.8-0.6c-1.1-0.1-1.3,0.2-1.1,1.2
			c0.2,1.3,0.4,2.7,0.6,4c0.1,0.6,0.3,0.8,0.9,0.8c3.3,0.2,6.6,0.6,9.9,0.5c0.7,0,1,0.1,1.1,1c0.1,1.8,0.1,3.7,0.1,5.5
			c0,0.8-0.3,1-1,0.9c-3-0.1-6-0.1-9-0.2c-1,0-1.4,0.1-1.4,1.2c0,1.1,0,2.3-0.2,3.4c-0.1,0.7,0.2,0.9,0.8,0.9
			c3.4,0,6.8,0.1,10.1,0.1c0.8,0,0.9,0.1,0.8,0.9c-0.4,1.9-0.8,3.8-1.1,5.8c-0.1,0.8-0.4,1-1.2,1c-3.1-0.1-6.1,0-9.2,0
			C201.9,89.4,201.9,89.4,201.9,89.4z"/>
	</g>
	<g id="Group_4">
		<path id="Path_7" class="st0" d="M208.4,39.2c-2.1,0.1-4.2-0.1-6.2-0.6c-6.8-1.8-10.2-6.6-11.8-13.1c-0.8-3.3-0.6-6.8,0.5-10
			c2-6,6.4-8.9,12.5-9.8c2.4-0.4,4.8-0.3,7.2,0.1c3.6,0.7,6.9,2.7,9.2,5.5c3.5,4.2,5.5,9.4,5.7,14.9c0.3,6.6-3.1,10.8-9.6,12.3
			C213.5,39,211,39.2,208.4,39.2z M214.1,24.5c0-0.9-0.1-1.7-0.3-2.5c-0.6-2.8-1.6-5.5-3.7-7.6c-2.3-2.5-6.2-2.6-8.6-0.3
			c-0.6,0.5-1,1.2-1.4,1.9c-0.7,1.4-1.1,2.8-1.2,4.4c-0.2,3.6,0.8,6.9,3.7,9.2c2.4,1.9,5.7,2.3,8.4,0.9
			C213.5,29.4,214.2,27.2,214.1,24.5z"/>
		<path id="Path_8" class="st0" d="M18.4,37.5c-2.4-0.1-4.9-0.2-7.3-0.2c-1,0-1.3-0.2-1.1-1.3c0.6-3.1,1.2-6.1,1.6-9.2
			c0.8-6.2,1-12.5,0.5-18.7c-0.1-1,0.2-1.3,1.2-1.3c3.8,0.1,7.6,0,11.3-0.4C29,6,33.8,5.4,37.7,7.9c3.2,2.3,5.3,5.8,5.7,9.6
			c1,6.6-2,13.1-7.6,16.6C30.4,37.8,24.5,37.8,18.4,37.5z M25.1,14.5c-0.4,0-2.5-0.4-2.6,1.3c-0.1,1.7-0.4,3.3-0.7,5
			c-0.4,3-0.9,6-1.3,9c0,0.3-0.3,0.8,0.4,0.9c5.8,0.8,10.4-0.8,11.4-7.3C33.6,14.5,25.1,14.5,25.1,14.5z"/>
		<path id="Path_9" class="st0" d="M78.1,28.8c0.9,0,1.8,0,2.7,0c1.2,0,2.6-0.4,3,1.4c0.2,0.7,1,1,1.7,1.2c2.2,0.8,4.7,0.6,6.8-0.3
			c0.5-0.2,1-0.6,1.3-1c0.9-0.8,1-2.2,0.1-3.1c-0.3-0.3-0.7-0.6-1.1-0.7c-1.7-0.4-3.4-0.7-5.1-0.7c-2.8-0.1-5.6-0.8-8.2-1.9
			c-3.5-1.6-6-4.9-6.5-8.7c-0.6-2.8,0.9-5.7,3.7-6.7c2.5-1,5.1-1.6,7.8-1.8c3.5-0.5,7.1-0.7,10.6-0.6C96.5,5.9,98,6.3,99.4,7
			c2.3,1.1,3.7,3.5,3.5,6c0,0.4-0.1,0.6-0.6,0.7c-2.6,0.3-5.1,0.7-7.6,1.1c-0.4,0.1-0.6-0.1-0.7-0.4c-0.3-0.9-1.1-1.5-2.1-1.6
			c-1.9-0.3-3.8-0.2-5.6,0.5c-0.9,0.3-1.8,0.9-1.7,2.1s0.9,1.5,1.8,1.8c1.2,0.3,2.4,0.5,3.6,0.5c2.6,0,5.1,0.2,7.7,0.6
			c2.6,0.5,4.7,2.5,5.4,5.1c0.9,2.9,1,5.9,0.3,8.8c-0.7,3-2.9,5.5-5.8,6.4c-4,1.6-8.2,1.6-12.4,1.3c-2.1-0.1-4.2-0.4-6.1-1.1
			c-4.1-1.5-6.5-4.8-6.4-8.7c0-0.8,0.1-1.2,1.1-1.1C75.3,28.9,76.7,28.8,78.1,28.8C78.1,28.8,78.1,28.8,78.1,28.8z"/>
		<path id="Path_10" class="st0" d="M177.9,19.4c0.5-4.7,1.7-9.3,2.2-14c0.1-0.7,0.4-0.7,0.9-0.8c2.3-0.2,4.7-0.3,7-0.2
			c0.9,0,1.1,0.2,0.9,1.1c-0.7,4-1.3,8.1-1.9,12.1c-0.7,5.1-0.8,10.2-0.3,15.3c0.1,1.3,0.1,2.6,0.2,3.8c0.1,0.6-0.2,0.8-0.7,0.7
			c-2.1-0.2-4.1-0.5-6.2-0.7c-0.7-0.1-0.9-0.5-1.1-1c-3.7-5.4-7.5-10.8-12.4-15.2c-0.3-0.4-0.7-0.6-1.1-0.7c0,0.7,0,1.4,0,2.1
			c0,4.2,0,8.4-0.1,12.6c0,1-0.2,1.4-1.4,1.3c-2.6-0.1-5.2,0-7.7,0.5c-0.9,0.1-1.1-0.1-1.1-1c0.4-6.9,0.7-13.9,0.5-20.8
			c-0.1-2-0.1-4.1-0.2-6.1c0-0.6,0-1,0.8-0.9c2.4,0.2,4.9,0.2,7.3,0c0.4,0,0.9,0.1,1.2,0.4c4.6,3.4,9.2,6.7,12.7,11.4
			C177.6,19.4,177.7,19.4,177.9,19.4z"/>
		<path id="Path_11" class="st0" d="M145.8,17c-1.4,0-2.9,0-4.3,0c-0.4,0-0.8-0.1-0.9-0.5c-1.4-4-8.5-4.7-11.2-0.4
			c-2.3,3.7-1.9,11.1,0.8,14.4c1.3,1.7,3.6,2.5,5.7,2c2.4-0.5,4.3-1.7,5.2-4.2c0.2-0.7,0.3-1.2-0.8-1.1s-2.4,0.2-3.6,0.3
			c-0.6,0-0.8-0.1-0.8-0.7c0.1-1.8,0.1-3.5,0-5.3c0-0.7,0.3-0.8,0.9-0.8c4.6-0.1,9.2-0.3,13.9-0.6c0.4,0,0.9-0.3,0.9,0.5
			c0.2,4.8-0.5,9.3-3.9,13c-4.4,5.1-11.2,7.4-17.9,6.2c-2.5-0.4-4.8-1.7-6.3-3.8c-4-5.5-6-11.6-4.9-18.4c0.7-5,4.3-9.2,9.2-10.6
			c6.7-2.3,13.1-1.9,18.8,2.6c2,1.6,3.5,3.7,4.3,6.2c0.3,0.9,0.3,1.3-0.9,1.2C148.7,16.9,147.3,17,145.8,17
			C145.8,17,145.8,17,145.8,17z"/>
		<path id="Path_12" class="st0" d="M61.5,12.8c-1.8-0.1-3.5-0.1-5.3-0.3c-0.6,0-0.8,0.1-0.7,0.7c0.2,1.4,0.5,2.8,0.7,4.1
			c0.1,0.6,0.4,0.7,0.9,0.7c3.2,0.1,6.5,0.3,9.8,0.4c0.9,0,1.2,0.3,1.2,1.1c0.1,1.6,0.1,3.2,0.2,4.8c0.1,0.9-0.2,1.2-1.1,1.1
			c-3.2-0.3-6.4-0.4-9.6-0.7c-0.8-0.1-1.1,0.1-1.1,1c0,1.1-0.2,2.2-0.3,3.2c-0.1,0.6,0,0.8,0.7,0.9c3.7,0.3,7.3,0.6,10.9,0.9
			c0.9,0.1,0.9,0.4,0.8,1.1c-0.2,2.1-0.4,4.2-0.6,6.2c0,0.7-0.2,0.8-0.9,0.8c-4.4-0.5-8.8-0.9-13.2-1.4c-2.3-0.3-4.7-0.4-7-0.3
			c-1.1,0-1.3-0.3-1.2-1.3c0.6-3.6,1.2-7.3,1.7-10.9c0.4-3.8,0.4-7.7-0.1-11.5c-0.2-2.9-0.5-5.8-0.8-8.6C46.4,4,46.9,4,47.5,4
			c4.6-0.1,9.2,0.1,13.7,0.6c1.3,0.1,2.5,0.3,3.8,0.4c0.6,0,0.9,0.3,1,0.9c0.4,2.2,0.8,4.4,1.4,6.6c0.2,0.6,0,0.8-0.6,0.7
			C65.1,13,63.3,12.9,61.5,12.8L61.5,12.8z"/>
		<path id="Path_13" class="st0" d="M114.6,40.3l-5.4-0.3c-0.4,0-0.9,0-0.9-0.6c-0.4-7.7-1.9-15.2-1.5-22.9
			c0.2-3.7,0.5-7.4,0.7-11.1c0-0.5,0.2-0.8,0.8-0.8c2.5,0,5,0.3,7.5,0.5c0.7,0.1,0.6,0.5,0.5,1c-0.3,2.7-0.6,5.4-0.8,8.1
			c-0.5,5.4-0.3,10.8,0.6,16.1c0.4,2.9,0.7,5.7,0.9,8.6c0.1,1.2-0.3,1.4-1.3,1.3C115.2,40.3,114.8,40.3,114.6,40.3L114.6,40.3z"/>
	</g>
</g>
</svg>
