<svg id="Layer_1" data-name="Layer 1" xmlns="http://www.w3.org/2000/svg" viewBox="0 0 378.29 987.15"><defs><style>.cls-1{fill:#fff;}</style></defs><title>develmode-bg</title><path class="cls-1" d="M46.73,99c0,9.57-5.77,20-20.83,20H6.5v-1h5.28V79.4H6.5v-1H24.34C39.48,78.41,46.73,88.16,46.73,99Zm-28-19.61V118h7.43c11.4,0,12.93-9.86,12.93-18.62,0-9.92-2-20-14.56-20Z"/><path class="cls-1" d="M82.43,104.75,81.76,119H50.46v-1h5.28V79.4H50.46v-1h31L82,92l-1,0L80.89,90C80.6,84.91,78.75,79.4,69,79.4H62.71V98.05H65a13.77,13.77,0,0,0,2.78-.21c2.61-.58,4.18-3.59,4.38-7.36h1v16.1h-1c-.23-4.59-1.71-6.88-4.26-7.37A15.54,15.54,0,0,0,65,99H62.71v19h6.23c9.4,0,12-5.45,12.33-11.11l.12-2.2Z"/><path class="cls-1" d="M125.87,78.41v1h-.14c-3.57,0-5.63,1.56-11.14,16.41l-8.79,23.62h-1L90,79.4H86v-1h16.07v1H97.39l11.08,30.08,5.28-14.33A30.41,30.41,0,0,0,116,85.05c0-4.06-1.83-5.65-4.18-5.65h-.46v-1Z"/><path class="cls-1" d="M160.21,104.75,159.54,119h-31.3v-1h5.28V79.4h-5.28v-1h31l.46,13.6-1,0L158.67,90c-.29-5.07-2.15-10.58-11.92-10.58h-6.27V98.05h2.29a13.92,13.92,0,0,0,2.79-.21c2.61-.58,4.18-3.59,4.38-7.36h1v16.1h-1c-.23-4.59-1.71-6.88-4.27-7.37a15.54,15.54,0,0,0-2.9-.2h-2.29v19h6.24c9.4,0,12-5.45,12.33-11.11l.11-2.2Z"/><path class="cls-1" d="M197.21,104.75l-.7,14.27H164.9v-1h5.28V79.4H164.9v-1h17.52v1h-5.28V118h6.55c9.29,0,12-5.28,12.39-11.14l.14-2.2Z"/><path class="cls-1" d="M244.37,79.4V118h5.28v1H232.13v-1h5.28V80l-13.17,39h-1.11L208.78,80.41v24.31c0,9.83,1.79,13.31,6.41,13.31h.43v1H200.83v-1h.46c4.53,0,6.47-3.51,6.47-13.31V79.4h-5.68v-1h13.57l11.17,29.73,10-29.73h12.82v1Z"/><path class="cls-1" d="M292.42,98.72c0,10.2-7.05,21.4-19.67,21.4s-19.67-11.2-19.67-21.4,7.08-21.41,19.67-21.41S292.42,88.5,292.42,98.72ZM272.75,78.29c-9.66,0-12,10.42-12,20.43s2.38,20.42,12,20.42,12-10.42,12-20.42S282.44,78.29,272.75,78.29Z"/><path class="cls-1" d="M336.09,99c0,9.57-5.77,20-20.82,20H295.86v-1h5.28V79.4h-5.28v-1H313.7C328.84,78.41,336.09,88.16,336.09,99Zm-28-19.61V118h7.43c11.4,0,12.93-9.86,12.93-18.62,0-9.92-2-20-14.56-20Z"/><path class="cls-1" d="M371.79,104.75,371.12,119H339.83v-1h5.27V79.4h-5.27v-1h31l.47,13.6-1,0L370.25,90c-.29-5.07-2.14-10.58-11.92-10.58h-6.26V98.05h2.29a13.77,13.77,0,0,0,2.78-.21c2.61-.58,4.18-3.59,4.38-7.36h1v16.1h-1c-.23-4.59-1.71-6.88-4.26-7.37a15.54,15.54,0,0,0-2.9-.2h-2.29v19h6.23c9.4,0,12-5.45,12.33-11.11l.12-2.2Z"/><path class="cls-1" d="M46.73,33.2c0,9.57-5.77,20-20.83,20H6.5v-1h5.28V13.59H6.5v-1H24.34C39.48,12.6,46.73,22.35,46.73,33.2Zm-28-19.61V52.22h7.43c11.4,0,12.93-9.86,12.93-18.62,0-9.92-2-20-14.56-20Z"/><path class="cls-1" d="M82.43,38.94l-.67,14.27H50.46v-1h5.28V13.59H50.46v-1h31L82,26.2l-1,0-.12-2.06C80.6,19.1,78.75,13.59,69,13.59H62.71V32.24H65A13.77,13.77,0,0,0,67.78,32c2.61-.58,4.18-3.59,4.38-7.36h1v16.1h-1c-.23-4.59-1.71-6.88-4.26-7.37a15.54,15.54,0,0,0-2.9-.2H62.71v19h6.23c9.4,0,12-5.45,12.33-11.11l.12-2.2Z"/><path class="cls-1" d="M125.87,12.6v1h-.14c-3.57,0-5.63,1.56-11.14,16.41L105.8,53.62h-1L90,13.59H86v-1h16.07v1H97.39l11.08,30.08,5.28-14.33A30.41,30.41,0,0,0,116,19.24c0-4.06-1.83-5.65-4.18-5.65h-.46v-1Z"/><path class="cls-1" d="M160.21,38.94l-.67,14.27h-31.3v-1h5.28V13.59h-5.28v-1h31l.46,13.6-1,0-.12-2.06c-.29-5.07-2.15-10.58-11.92-10.58h-6.27V32.24h2.29a13.92,13.92,0,0,0,2.79-.21c2.61-.58,4.18-3.59,4.38-7.36h1v16.1h-1c-.23-4.59-1.71-6.88-4.27-7.37a15.54,15.54,0,0,0-2.9-.2h-2.29v19h6.24c9.4,0,12-5.45,12.33-11.11l.11-2.2Z"/><path class="cls-1" d="M197.21,38.94l-.7,14.27H164.9v-1h5.28V13.59H164.9v-1h17.52v1h-5.28V52.22h6.55c9.29,0,12-5.28,12.39-11.14l.14-2.2Z"/><path class="cls-1" d="M244.37,13.59V52.22h5.28v1H232.13v-1h5.28v-38l-13.17,39h-1.11L208.78,14.6V38.91c0,9.83,1.79,13.31,6.41,13.31h.43v1H200.83v-1h.46c4.53,0,6.47-3.51,6.47-13.31V13.59h-5.68v-1h13.57l11.17,29.73,10-29.73h12.82v1Z"/><path class="cls-1" d="M292.42,32.91c0,10.2-7.05,21.4-19.67,21.4s-19.67-11.2-19.67-21.4,7.08-21.41,19.67-21.41S292.42,22.69,292.42,32.91ZM272.75,12.48c-9.66,0-12,10.42-12,20.43s2.38,20.42,12,20.42,12-10.42,12-20.42S282.44,12.48,272.75,12.48Z"/><path class="cls-1" d="M336.09,33.2c0,9.57-5.77,20-20.82,20H295.86v-1h5.28V13.59h-5.28v-1H313.7C328.84,12.6,336.09,22.35,336.09,33.2Zm-28-19.61V52.22h7.43c11.4,0,12.93-9.86,12.93-18.62,0-9.92-2-20-14.56-20Z"/><path class="cls-1" d="M371.79,38.94l-.67,14.27H339.83v-1h5.27V13.59h-5.27v-1h31l.47,13.6-1,0-.12-2.06c-.29-5.07-2.14-10.58-11.92-10.58h-6.26V32.24h2.29a13.77,13.77,0,0,0,2.78-.21c2.61-.58,4.18-3.59,4.38-7.36h1v16.1h-1c-.23-4.59-1.71-6.88-4.26-7.37a15.54,15.54,0,0,0-2.9-.2h-2.29v19h6.23c9.4,0,12-5.45,12.33-11.11l.12-2.2Z"/><path class="cls-1" d="M46.73,164.82c0,9.57-5.77,20-20.83,20H6.5v-1h5.28V145.21H6.5v-1H24.34C39.48,144.22,46.73,154,46.73,164.82Zm-28-19.61v38.63h7.43c11.4,0,12.93-9.86,12.93-18.62,0-9.92-2-20-14.56-20Z"/><path class="cls-1" d="M82.43,170.56l-.67,14.27H50.46v-1h5.28V145.21H50.46v-1h31l.47,13.6-1,0-.12-2.06c-.29-5.07-2.14-10.58-11.92-10.58H62.71v18.65H65a13.77,13.77,0,0,0,2.78-.21c2.61-.58,4.18-3.59,4.38-7.36h1v16.1h-1c-.23-4.59-1.71-6.88-4.26-7.37a15.54,15.54,0,0,0-2.9-.2H62.71v19h6.23c9.4,0,12-5.45,12.33-11.11l.12-2.2Z"/><path class="cls-1" d="M125.87,144.22v1h-.14c-3.57,0-5.63,1.56-11.14,16.41l-8.79,23.62h-1L90,145.21H86v-1h16.07v1H97.39l11.08,30.08L113.75,161a30.41,30.41,0,0,0,2.26-10.1c0-4.06-1.83-5.65-4.18-5.65h-.46v-1Z"/><path class="cls-1" d="M160.21,170.56l-.67,14.27h-31.3v-1h5.28V145.21h-5.28v-1h31l.46,13.6-1,0-.12-2.06c-.29-5.07-2.15-10.58-11.92-10.58h-6.27v18.65h2.29a13.92,13.92,0,0,0,2.79-.21c2.61-.58,4.18-3.59,4.38-7.36h1v16.1h-1c-.23-4.59-1.71-6.88-4.27-7.37a15.54,15.54,0,0,0-2.9-.2h-2.29v19h6.24c9.4,0,12-5.45,12.33-11.11l.11-2.2Z"/><path class="cls-1" d="M197.21,170.56l-.7,14.27H164.9v-1h5.28V145.21H164.9v-1h17.52v1h-5.28v38.63h6.55c9.29,0,12-5.28,12.39-11.14l.14-2.2Z"/><path class="cls-1" d="M244.37,145.21v38.63h5.28v1H232.13v-1h5.28V145.79l-13.17,39h-1.11l-14.35-38.61v24.31c0,9.83,1.79,13.31,6.41,13.31h.43v1H200.83v-1h.46c4.53,0,6.47-3.51,6.47-13.31V145.21h-5.68v-1h13.57L226.82,174l10-29.73h12.82v1Z"/><path class="cls-1" d="M292.42,164.53c0,10.2-7.05,21.4-19.67,21.4s-19.67-11.2-19.67-21.4,7.08-21.41,19.67-21.41S292.42,154.31,292.42,164.53ZM272.75,144.1c-9.66,0-12,10.42-12,20.43s2.38,20.42,12,20.42,12-10.42,12-20.42S282.44,144.1,272.75,144.1Z"/><path class="cls-1" d="M336.09,164.82c0,9.57-5.77,20-20.82,20H295.86v-1h5.28V145.21h-5.28v-1H313.7C328.84,144.22,336.09,154,336.09,164.82Zm-28-19.61v38.63h7.43c11.4,0,12.93-9.86,12.93-18.62,0-9.92-2-20-14.56-20Z"/><path class="cls-1" d="M371.79,170.56l-.67,14.27H339.83v-1h5.27V145.21h-5.27v-1h31l.47,13.6-1,0-.12-2.06c-.29-5.07-2.14-10.58-11.92-10.58h-6.26v18.65h2.29a13.77,13.77,0,0,0,2.78-.21c2.61-.58,4.18-3.59,4.38-7.36h1v16.1h-1c-.23-4.59-1.71-6.88-4.26-7.37a15.54,15.54,0,0,0-2.9-.2h-2.29v19h6.23c9.4,0,12-5.45,12.33-11.11l.12-2.2Z"/><path class="cls-1" d="M46.73,230.63c0,9.57-5.77,20-20.83,20H6.5v-1h5.28V211H6.5v-1H24.34C39.48,210,46.73,219.78,46.73,230.63ZM18.74,211v38.63h7.43c11.4,0,12.93-9.86,12.93-18.62,0-9.92-2-20-14.56-20Z"/><path class="cls-1" d="M82.43,236.37l-.67,14.27H50.46v-1h5.28V211H50.46v-1h31l.47,13.6-1,0-.12-2.06C80.6,216.53,78.75,211,69,211H62.71v18.65H65a13.77,13.77,0,0,0,2.78-.21c2.61-.58,4.18-3.59,4.38-7.36h1v16.1h-1c-.23-4.59-1.71-6.88-4.26-7.37a15.54,15.54,0,0,0-2.9-.2H62.71v19h6.23c9.4,0,12-5.45,12.33-11.11l.12-2.2Z"/><path class="cls-1" d="M125.87,210v1h-.14c-3.57,0-5.63,1.56-11.14,16.41l-8.79,23.62h-1L90,211H86v-1h16.07v1H97.39l11.08,30.08,5.28-14.33a30.41,30.41,0,0,0,2.26-10.1c0-4.06-1.83-5.65-4.18-5.65h-.46v-1Z"/><path class="cls-1" d="M160.21,236.37l-.67,14.27h-31.3v-1h5.28V211h-5.28v-1h31l.46,13.6-1,0-.12-2.06c-.29-5.07-2.15-10.58-11.92-10.58h-6.27v18.65h2.29a13.92,13.92,0,0,0,2.79-.21c2.61-.58,4.18-3.59,4.38-7.36h1v16.1h-1c-.23-4.59-1.71-6.88-4.27-7.37a15.54,15.54,0,0,0-2.9-.2h-2.29v19h6.24c9.4,0,12-5.45,12.33-11.11l.11-2.2Z"/><path class="cls-1" d="M197.21,236.37l-.7,14.27H164.9v-1h5.28V211H164.9v-1h17.52v1h-5.28v38.63h6.55c9.29,0,12-5.28,12.39-11.14l.14-2.2Z"/><path class="cls-1" d="M244.37,211v38.63h5.28v1H232.13v-1h5.28V211.6l-13.17,39h-1.11L208.78,212v24.31c0,9.83,1.79,13.31,6.41,13.31h.43v1H200.83v-1h.46c4.53,0,6.47-3.51,6.47-13.31V211h-5.68v-1h13.57l11.17,29.73,10-29.73h12.82v1Z"/><path class="cls-1" d="M292.42,230.34c0,10.2-7.05,21.4-19.67,21.4s-19.67-11.2-19.67-21.4,7.08-21.41,19.67-21.41S292.42,220.12,292.42,230.34Zm-19.67-20.43c-9.66,0-12,10.42-12,20.43s2.38,20.42,12,20.42,12-10.42,12-20.42S282.44,209.91,272.75,209.91Z"/><path class="cls-1" d="M336.09,230.63c0,9.57-5.77,20-20.82,20H295.86v-1h5.28V211h-5.28v-1H313.7C328.84,210,336.09,219.78,336.09,230.63ZM308.1,211v38.63h7.43c11.4,0,12.93-9.86,12.93-18.62,0-9.92-2-20-14.56-20Z"/><path class="cls-1" d="M371.79,236.37l-.67,14.27H339.83v-1h5.27V211h-5.27v-1h31l.47,13.6-1,0-.12-2.06C370,216.53,368.11,211,358.33,211h-6.26v18.65h2.29a13.77,13.77,0,0,0,2.78-.21c2.61-.58,4.18-3.59,4.38-7.36h1v16.1h-1c-.23-4.59-1.71-6.88-4.26-7.37a15.54,15.54,0,0,0-2.9-.2h-2.29v19h6.23c9.4,0,12-5.45,12.33-11.11l.12-2.2Z"/><path class="cls-1" d="M46.73,296.44c0,9.57-5.77,20-20.83,20H6.5v-1h5.28V276.83H6.5v-1H24.34C39.48,275.84,46.73,285.59,46.73,296.44Zm-28-19.61v38.63h7.43c11.4,0,12.93-9.86,12.93-18.62,0-9.92-2-20-14.56-20Z"/><path class="cls-1" d="M82.43,302.18l-.67,14.27H50.46v-1h5.28V276.83H50.46v-1h31l.47,13.6-1,0-.12-2.06c-.29-5.07-2.14-10.58-11.92-10.58H62.71v18.65H65a13.77,13.77,0,0,0,2.78-.21c2.61-.58,4.18-3.59,4.38-7.36h1V304h-1c-.23-4.59-1.71-6.88-4.26-7.37a15.54,15.54,0,0,0-2.9-.2H62.71v19h6.23c9.4,0,12-5.45,12.33-11.11l.12-2.2Z"/><path class="cls-1" d="M125.87,275.84v1h-.14c-3.57,0-5.63,1.56-11.14,16.41l-8.79,23.62h-1L90,276.83H86v-1h16.07v1H97.39l11.08,30.08,5.28-14.33a30.41,30.41,0,0,0,2.26-10.1c0-4.06-1.83-5.65-4.18-5.65h-.46v-1Z"/><path class="cls-1" d="M160.21,302.18l-.67,14.27h-31.3v-1h5.28V276.83h-5.28v-1h31l.46,13.6-1,0-.12-2.06c-.29-5.07-2.15-10.58-11.92-10.58h-6.27v18.65h2.29a13.92,13.92,0,0,0,2.79-.21c2.61-.58,4.18-3.59,4.38-7.36h1V304h-1c-.23-4.59-1.71-6.88-4.27-7.37a15.54,15.54,0,0,0-2.9-.2h-2.29v19h6.24c9.4,0,12-5.45,12.33-11.11l.11-2.2Z"/><path class="cls-1" d="M197.21,302.18l-.7,14.27H164.9v-1h5.28V276.83H164.9v-1h17.52v1h-5.28v38.63h6.55c9.29,0,12-5.28,12.39-11.14l.14-2.2Z"/><path class="cls-1" d="M244.37,276.83v38.63h5.28v1H232.13v-1h5.28v-38l-13.17,39h-1.11l-14.35-38.61v24.31c0,9.83,1.79,13.31,6.41,13.31h.43v1H200.83v-1h.46c4.53,0,6.47-3.51,6.47-13.31V276.83h-5.68v-1h13.57l11.17,29.73,10-29.73h12.82v1Z"/><path class="cls-1" d="M292.42,296.15c0,10.2-7.05,21.4-19.67,21.4s-19.67-11.2-19.67-21.4,7.08-21.41,19.67-21.41S292.42,285.93,292.42,296.15Zm-19.67-20.43c-9.66,0-12,10.42-12,20.43s2.38,20.42,12,20.42,12-10.42,12-20.42S282.44,275.72,272.75,275.72Z"/><path class="cls-1" d="M336.09,296.44c0,9.57-5.77,20-20.82,20H295.86v-1h5.28V276.83h-5.28v-1H313.7C328.84,275.84,336.09,285.59,336.09,296.44Zm-28-19.61v38.63h7.43c11.4,0,12.93-9.86,12.93-18.62,0-9.92-2-20-14.56-20Z"/><path class="cls-1" d="M371.79,302.18l-.67,14.27H339.83v-1h5.27V276.83h-5.27v-1h31l.47,13.6-1,0-.12-2.06c-.29-5.07-2.14-10.58-11.92-10.58h-6.26v18.65h2.29a13.77,13.77,0,0,0,2.78-.21c2.61-.58,4.18-3.59,4.38-7.36h1V304h-1c-.23-4.59-1.71-6.88-4.26-7.37a15.54,15.54,0,0,0-2.9-.2h-2.29v19h6.23c9.4,0,12-5.45,12.33-11.11l.12-2.2Z"/><path class="cls-1" d="M46.73,362.25c0,9.57-5.77,20-20.83,20H6.5v-1h5.28V342.64H6.5v-1H24.34C39.48,341.65,46.73,351.4,46.73,362.25Zm-28-19.61v38.63h7.43c11.4,0,12.93-9.86,12.93-18.62,0-9.92-2-20-14.56-20Z"/><path class="cls-1" d="M82.43,368l-.67,14.27H50.46v-1h5.28V342.64H50.46v-1h31l.47,13.6-1,0-.12-2.06c-.29-5.07-2.14-10.58-11.92-10.58H62.71v18.65H65a13.77,13.77,0,0,0,2.78-.21c2.61-.58,4.18-3.59,4.38-7.36h1v16.1h-1c-.23-4.59-1.71-6.88-4.26-7.37a15.54,15.54,0,0,0-2.9-.2H62.71v19h6.23c9.4,0,12-5.45,12.33-11.11l.12-2.2Z"/><path class="cls-1" d="M125.87,341.65v1h-.14c-3.57,0-5.63,1.56-11.14,16.41l-8.79,23.62h-1L90,342.64H86v-1h16.07v1H97.39l11.08,30.08,5.28-14.33a30.41,30.41,0,0,0,2.26-10.1c0-4.06-1.83-5.65-4.18-5.65h-.46v-1Z"/><path class="cls-1" d="M160.21,368l-.67,14.27h-31.3v-1h5.28V342.64h-5.28v-1h31l.46,13.6-1,0-.12-2.06c-.29-5.07-2.15-10.58-11.92-10.58h-6.27v18.65h2.29a13.92,13.92,0,0,0,2.79-.21c2.61-.58,4.18-3.59,4.38-7.36h1v16.1h-1c-.23-4.59-1.71-6.88-4.27-7.37a15.54,15.54,0,0,0-2.9-.2h-2.29v19h6.24c9.4,0,12-5.45,12.33-11.11l.11-2.2Z"/><path class="cls-1" d="M197.21,368l-.7,14.27H164.9v-1h5.28V342.64H164.9v-1h17.52v1h-5.28v38.63h6.55c9.29,0,12-5.28,12.39-11.14l.14-2.2Z"/><path class="cls-1" d="M244.37,342.64v38.63h5.28v1H232.13v-1h5.28v-38l-13.17,39h-1.11l-14.35-38.61V368c0,9.83,1.79,13.31,6.41,13.31h.43v1H200.83v-1h.46c4.53,0,6.47-3.51,6.47-13.31V342.64h-5.68v-1h13.57l11.17,29.73,10-29.73h12.82v1Z"/><path class="cls-1" d="M292.42,362c0,10.2-7.05,21.4-19.67,21.4s-19.67-11.2-19.67-21.4,7.08-21.41,19.67-21.41S292.42,351.74,292.42,362Zm-19.67-20.43c-9.66,0-12,10.42-12,20.43s2.38,20.42,12,20.42,12-10.42,12-20.42S282.44,341.53,272.75,341.53Z"/><path class="cls-1" d="M336.09,362.25c0,9.57-5.77,20-20.82,20H295.86v-1h5.28V342.64h-5.28v-1H313.7C328.84,341.65,336.09,351.4,336.09,362.25Zm-28-19.61v38.63h7.43c11.4,0,12.93-9.86,12.93-18.62,0-9.92-2-20-14.56-20Z"/><path class="cls-1" d="M371.79,368l-.67,14.27H339.83v-1h5.27V342.64h-5.27v-1h31l.47,13.6-1,0-.12-2.06c-.29-5.07-2.14-10.58-11.92-10.58h-6.26v18.65h2.29a13.77,13.77,0,0,0,2.78-.21c2.61-.58,4.18-3.59,4.38-7.36h1v16.1h-1c-.23-4.59-1.71-6.88-4.26-7.37a15.54,15.54,0,0,0-2.9-.2h-2.29v19h6.23c9.4,0,12-5.45,12.33-11.11l.12-2.2Z"/><path class="cls-1" d="M46.73,428.06c0,9.57-5.77,20-20.83,20H6.5v-1h5.28V408.45H6.5v-1H24.34C39.48,407.46,46.73,417.21,46.73,428.06Zm-28-19.61v38.63h7.43c11.4,0,12.93-9.86,12.93-18.62,0-9.92-2-20-14.56-20Z"/><path class="cls-1" d="M82.43,433.8l-.67,14.27H50.46v-1h5.28V408.45H50.46v-1h31l.47,13.6-1,0L80.89,419C80.6,414,78.75,408.45,69,408.45H62.71V427.1H65a13.77,13.77,0,0,0,2.78-.21c2.61-.58,4.18-3.59,4.38-7.36h1v16.1h-1c-.23-4.59-1.71-6.88-4.26-7.37a15.54,15.54,0,0,0-2.9-.2H62.71v19h6.23c9.4,0,12-5.45,12.33-11.11l.12-2.2Z"/><path class="cls-1" d="M125.87,407.46v1h-.14c-3.57,0-5.63,1.56-11.14,16.41l-8.79,23.62h-1L90,408.45H86v-1h16.07v1H97.39l11.08,30.08,5.28-14.33A30.41,30.41,0,0,0,116,414.1c0-4.06-1.83-5.65-4.18-5.65h-.46v-1Z"/><path class="cls-1" d="M160.21,433.8l-.67,14.27h-31.3v-1h5.28V408.45h-5.28v-1h31l.46,13.6-1,0-.12-2.06c-.29-5.07-2.15-10.58-11.92-10.58h-6.27V427.1h2.29a13.92,13.92,0,0,0,2.79-.21c2.61-.58,4.18-3.59,4.38-7.36h1v16.1h-1c-.23-4.59-1.71-6.88-4.27-7.37a15.54,15.54,0,0,0-2.9-.2h-2.29v19h6.24c9.4,0,12-5.45,12.33-11.11l.11-2.2Z"/><path class="cls-1" d="M197.21,433.8l-.7,14.27H164.9v-1h5.28V408.45H164.9v-1h17.52v1h-5.28v38.63h6.55c9.29,0,12-5.28,12.39-11.14l.14-2.2Z"/><path class="cls-1" d="M244.37,408.45v38.63h5.28v1H232.13v-1h5.28V409l-13.17,39h-1.11l-14.35-38.61v24.31c0,9.83,1.79,13.31,6.41,13.31h.43v1H200.83v-1h.46c4.53,0,6.47-3.51,6.47-13.31V408.45h-5.68v-1h13.57l11.17,29.73,10-29.73h12.82v1Z"/><path class="cls-1" d="M292.42,427.77c0,10.2-7.05,21.4-19.67,21.4s-19.67-11.2-19.67-21.4,7.08-21.41,19.67-21.41S292.42,417.55,292.42,427.77Zm-19.67-20.43c-9.66,0-12,10.42-12,20.43s2.38,20.42,12,20.42,12-10.42,12-20.42S282.44,407.34,272.75,407.34Z"/><path class="cls-1" d="M336.09,428.06c0,9.57-5.77,20-20.82,20H295.86v-1h5.28V408.45h-5.28v-1H313.7C328.84,407.46,336.09,417.21,336.09,428.06Zm-28-19.61v38.63h7.43c11.4,0,12.93-9.86,12.93-18.62,0-9.92-2-20-14.56-20Z"/><path class="cls-1" d="M371.79,433.8l-.67,14.27H339.83v-1h5.27V408.45h-5.27v-1h31l.47,13.6-1,0-.12-2.06c-.29-5.07-2.14-10.58-11.92-10.58h-6.26V427.1h2.29a13.77,13.77,0,0,0,2.78-.21c2.61-.58,4.18-3.59,4.38-7.36h1v16.1h-1c-.23-4.59-1.71-6.88-4.26-7.37a15.54,15.54,0,0,0-2.9-.2h-2.29v19h6.23c9.4,0,12-5.45,12.33-11.11l.12-2.2Z"/><path class="cls-1" d="M46.73,493.87c0,9.57-5.77,20-20.83,20H6.5v-1h5.28V474.26H6.5v-1H24.34C39.48,473.27,46.73,483,46.73,493.87Zm-28-19.61v38.63h7.43c11.4,0,12.93-9.86,12.93-18.62,0-9.92-2-20-14.56-20Z"/><path class="cls-1" d="M82.43,499.61l-.67,14.27H50.46v-1h5.28V474.26H50.46v-1h31l.47,13.6-1,0-.12-2.06c-.29-5.07-2.14-10.58-11.92-10.58H62.71v18.65H65a13.77,13.77,0,0,0,2.78-.21c2.61-.58,4.18-3.59,4.38-7.36h1v16.1h-1c-.23-4.59-1.71-6.88-4.26-7.37a15.54,15.54,0,0,0-2.9-.2H62.71v19h6.23c9.4,0,12-5.45,12.33-11.11l.12-2.2Z"/><path class="cls-1" d="M125.87,473.27v1h-.14c-3.57,0-5.63,1.56-11.14,16.41l-8.79,23.62h-1L90,474.26H86v-1h16.07v1H97.39l11.08,30.08L113.75,490a30.41,30.41,0,0,0,2.26-10.1c0-4.06-1.83-5.65-4.18-5.65h-.46v-1Z"/><path class="cls-1" d="M160.21,499.61l-.67,14.27h-31.3v-1h5.28V474.26h-5.28v-1h31l.46,13.6-1,0-.12-2.06c-.29-5.07-2.15-10.58-11.92-10.58h-6.27v18.65h2.29a13.92,13.92,0,0,0,2.79-.21c2.61-.58,4.18-3.59,4.38-7.36h1v16.1h-1c-.23-4.59-1.71-6.88-4.27-7.37a15.54,15.54,0,0,0-2.9-.2h-2.29v19h6.24c9.4,0,12-5.45,12.33-11.11l.11-2.2Z"/><path class="cls-1" d="M197.21,499.61l-.7,14.27H164.9v-1h5.28V474.26H164.9v-1h17.52v1h-5.28v38.63h6.55c9.29,0,12-5.28,12.39-11.14l.14-2.2Z"/><path class="cls-1" d="M244.37,474.26v38.63h5.28v1H232.13v-1h5.28V474.84l-13.17,39h-1.11l-14.35-38.61v24.31c0,9.83,1.79,13.31,6.41,13.31h.43v1H200.83v-1h.46c4.53,0,6.47-3.51,6.47-13.31V474.26h-5.68v-1h13.57L226.82,503l10-29.73h12.82v1Z"/><path class="cls-1" d="M292.42,493.58c0,10.2-7.05,21.4-19.67,21.4s-19.67-11.2-19.67-21.4,7.08-21.41,19.67-21.41S292.42,483.36,292.42,493.58Zm-19.67-20.43c-9.66,0-12,10.42-12,20.43s2.38,20.42,12,20.42,12-10.42,12-20.42S282.44,473.15,272.75,473.15Z"/><path class="cls-1" d="M336.09,493.87c0,9.57-5.77,20-20.82,20H295.86v-1h5.28V474.26h-5.28v-1H313.7C328.84,473.27,336.09,483,336.09,493.87Zm-28-19.61v38.63h7.43c11.4,0,12.93-9.86,12.93-18.62,0-9.92-2-20-14.56-20Z"/><path class="cls-1" d="M371.79,499.61l-.67,14.27H339.83v-1h5.27V474.26h-5.27v-1h31l.47,13.6-1,0-.12-2.06c-.29-5.07-2.14-10.58-11.92-10.58h-6.26v18.65h2.29a13.77,13.77,0,0,0,2.78-.21c2.61-.58,4.18-3.59,4.38-7.36h1v16.1h-1c-.23-4.59-1.71-6.88-4.26-7.37a15.54,15.54,0,0,0-2.9-.2h-2.29v19h6.23c9.4,0,12-5.45,12.33-11.11l.12-2.2Z"/><path class="cls-1" d="M46.73,559.68c0,9.57-5.77,20-20.83,20H6.5v-1h5.28V540.07H6.5v-1H24.34C39.48,539.08,46.73,548.83,46.73,559.68Zm-28-19.61V578.7h7.43c11.4,0,12.93-9.86,12.93-18.62,0-9.92-2-20-14.56-20Z"/><path class="cls-1" d="M82.43,565.42l-.67,14.27H50.46v-1h5.28V540.07H50.46v-1h31l.47,13.6-1,0-.12-2.06c-.29-5.07-2.14-10.58-11.92-10.58H62.71v18.65H65a13.77,13.77,0,0,0,2.78-.21c2.61-.58,4.18-3.59,4.38-7.36h1v16.1h-1c-.23-4.59-1.71-6.88-4.26-7.37a15.54,15.54,0,0,0-2.9-.2H62.71v19h6.23c9.4,0,12-5.45,12.33-11.11l.12-2.2Z"/><path class="cls-1" d="M125.87,539.08v1h-.14c-3.57,0-5.63,1.56-11.14,16.41L105.8,580.1h-1L90,540.07H86v-1h16.07v1H97.39l11.08,30.08,5.28-14.33a30.41,30.41,0,0,0,2.26-10.1c0-4.06-1.83-5.65-4.18-5.65h-.46v-1Z"/><path class="cls-1" d="M160.21,565.42l-.67,14.27h-31.3v-1h5.28V540.07h-5.28v-1h31l.46,13.6-1,0-.12-2.06c-.29-5.07-2.15-10.58-11.92-10.58h-6.27v18.65h2.29a13.92,13.92,0,0,0,2.79-.21c2.61-.58,4.18-3.59,4.38-7.36h1v16.1h-1c-.23-4.59-1.71-6.88-4.27-7.37a15.54,15.54,0,0,0-2.9-.2h-2.29v19h6.24c9.4,0,12-5.45,12.33-11.11l.11-2.2Z"/><path class="cls-1" d="M197.21,565.42l-.7,14.27H164.9v-1h5.28V540.07H164.9v-1h17.52v1h-5.28V578.7h6.55c9.29,0,12-5.28,12.39-11.14l.14-2.2Z"/><path class="cls-1" d="M244.37,540.07V578.7h5.28v1H232.13v-1h5.28V540.65l-13.17,39h-1.11l-14.35-38.61v24.31c0,9.83,1.79,13.31,6.41,13.31h.43v1H200.83v-1h.46c4.53,0,6.47-3.51,6.47-13.31V540.07h-5.68v-1h13.57l11.17,29.73,10-29.73h12.82v1Z"/><path class="cls-1" d="M292.42,559.39c0,10.2-7.05,21.4-19.67,21.4s-19.67-11.2-19.67-21.4S260.16,538,272.75,538,292.42,549.17,292.42,559.39ZM272.75,539c-9.66,0-12,10.42-12,20.43s2.38,20.42,12,20.42,12-10.42,12-20.42S282.44,539,272.75,539Z"/><path class="cls-1" d="M336.09,559.68c0,9.57-5.77,20-20.82,20H295.86v-1h5.28V540.07h-5.28v-1H313.7C328.84,539.08,336.09,548.83,336.09,559.68Zm-28-19.61V578.7h7.43c11.4,0,12.93-9.86,12.93-18.62,0-9.92-2-20-14.56-20Z"/><path class="cls-1" d="M371.79,565.42l-.67,14.27H339.83v-1h5.27V540.07h-5.27v-1h31l.47,13.6-1,0-.12-2.06c-.29-5.07-2.14-10.58-11.92-10.58h-6.26v18.65h2.29a13.77,13.77,0,0,0,2.78-.21c2.61-.58,4.18-3.59,4.38-7.36h1v16.1h-1c-.23-4.59-1.71-6.88-4.26-7.37a15.54,15.54,0,0,0-2.9-.2h-2.29v19h6.23c9.4,0,12-5.45,12.33-11.11l.12-2.2Z"/><path class="cls-1" d="M46.73,625.49c0,9.57-5.77,20-20.83,20H6.5v-1h5.28V605.88H6.5v-1H24.34C39.48,604.89,46.73,614.64,46.73,625.49Zm-28-19.61v38.63h7.43c11.4,0,12.93-9.86,12.93-18.62,0-9.92-2-20-14.56-20Z"/><path class="cls-1" d="M82.43,631.23l-.67,14.27H50.46v-1h5.28V605.88H50.46v-1h31l.47,13.6-1,0-.12-2.06c-.29-5.07-2.14-10.58-11.92-10.58H62.71v18.65H65a13.77,13.77,0,0,0,2.78-.21c2.61-.58,4.18-3.59,4.38-7.36h1v16.1h-1c-.23-4.59-1.71-6.88-4.26-7.37a15.54,15.54,0,0,0-2.9-.2H62.71v19h6.23c9.4,0,12-5.45,12.33-11.11l.12-2.2Z"/><path class="cls-1" d="M125.87,604.89v1h-.14c-3.57,0-5.63,1.56-11.14,16.41l-8.79,23.62h-1L90,605.88H86v-1h16.07v1H97.39L108.47,636l5.28-14.33a30.41,30.41,0,0,0,2.26-10.1c0-4.06-1.83-5.65-4.18-5.65h-.46v-1Z"/><path class="cls-1" d="M160.21,631.23l-.67,14.27h-31.3v-1h5.28V605.88h-5.28v-1h31l.46,13.6-1,0-.12-2.06c-.29-5.07-2.15-10.58-11.92-10.58h-6.27v18.65h2.29a13.92,13.92,0,0,0,2.79-.21c2.61-.58,4.18-3.59,4.38-7.36h1v16.1h-1c-.23-4.59-1.71-6.88-4.27-7.37a15.54,15.54,0,0,0-2.9-.2h-2.29v19h6.24c9.4,0,12-5.45,12.33-11.11l.11-2.2Z"/><path class="cls-1" d="M197.21,631.23l-.7,14.27H164.9v-1h5.28V605.88H164.9v-1h17.52v1h-5.28v38.63h6.55c9.29,0,12-5.28,12.39-11.14l.14-2.2Z"/><path class="cls-1" d="M244.37,605.88v38.63h5.28v1H232.13v-1h5.28v-38l-13.17,39h-1.11l-14.35-38.61V631.2c0,9.83,1.79,13.31,6.41,13.31h.43v1H200.83v-1h.46c4.53,0,6.47-3.51,6.47-13.31V605.88h-5.68v-1h13.57l11.17,29.73,10-29.73h12.82v1Z"/><path class="cls-1" d="M292.42,625.2c0,10.2-7.05,21.4-19.67,21.4s-19.67-11.2-19.67-21.4,7.08-21.41,19.67-21.41S292.42,615,292.42,625.2Zm-19.67-20.43c-9.66,0-12,10.42-12,20.43s2.38,20.42,12,20.42,12-10.42,12-20.42S282.44,604.77,272.75,604.77Z"/><path class="cls-1" d="M336.09,625.49c0,9.57-5.77,20-20.82,20H295.86v-1h5.28V605.88h-5.28v-1H313.7C328.84,604.89,336.09,614.64,336.09,625.49Zm-28-19.61v38.63h7.43c11.4,0,12.93-9.86,12.93-18.62,0-9.92-2-20-14.56-20Z"/><path class="cls-1" d="M371.79,631.23l-.67,14.27H339.83v-1h5.27V605.88h-5.27v-1h31l.47,13.6-1,0-.12-2.06c-.29-5.07-2.14-10.58-11.92-10.58h-6.26v18.65h2.29a13.77,13.77,0,0,0,2.78-.21c2.61-.58,4.18-3.59,4.38-7.36h1v16.1h-1c-.23-4.59-1.71-6.88-4.26-7.37a15.54,15.54,0,0,0-2.9-.2h-2.29v19h6.23c9.4,0,12-5.45,12.33-11.11l.12-2.2Z"/><path class="cls-1" d="M46.73,691.3c0,9.57-5.77,20-20.83,20H6.5v-1h5.28V671.69H6.5v-1H24.34C39.48,670.7,46.73,680.45,46.73,691.3Zm-28-19.61v38.63h7.43c11.4,0,12.93-9.86,12.93-18.62,0-9.92-2-20-14.56-20Z"/><path class="cls-1" d="M82.43,697l-.67,14.27H50.46v-1h5.28V671.69H50.46v-1h31L82,684.3l-1,0-.12-2.06c-.29-5.07-2.14-10.58-11.92-10.58H62.71v18.65H65a13.77,13.77,0,0,0,2.78-.21c2.61-.58,4.18-3.59,4.38-7.36h1v16.1h-1c-.23-4.59-1.71-6.88-4.26-7.37a15.54,15.54,0,0,0-2.9-.2H62.71v19h6.23c9.4,0,12-5.45,12.33-11.11l.12-2.2Z"/><path class="cls-1" d="M125.87,670.7v1h-.14c-3.57,0-5.63,1.56-11.14,16.41l-8.79,23.62h-1L90,671.69H86v-1h16.07v1H97.39l11.08,30.08,5.28-14.33a30.41,30.41,0,0,0,2.26-10.1c0-4.06-1.83-5.65-4.18-5.65h-.46v-1Z"/><path class="cls-1" d="M160.21,697l-.67,14.27h-31.3v-1h5.28V671.69h-5.28v-1h31l.46,13.6-1,0-.12-2.06c-.29-5.07-2.15-10.58-11.92-10.58h-6.27v18.65h2.29a13.92,13.92,0,0,0,2.79-.21c2.61-.58,4.18-3.59,4.38-7.36h1v16.1h-1c-.23-4.59-1.71-6.88-4.27-7.37a15.54,15.54,0,0,0-2.9-.2h-2.29v19h6.24c9.4,0,12-5.45,12.33-11.11l.11-2.2Z"/><path class="cls-1" d="M197.21,697l-.7,14.27H164.9v-1h5.28V671.69H164.9v-1h17.52v1h-5.28v38.63h6.55c9.29,0,12-5.28,12.39-11.14l.14-2.2Z"/><path class="cls-1" d="M244.37,671.69v38.63h5.28v1H232.13v-1h5.28V672.27l-13.17,39h-1.11L208.78,672.7V697c0,9.83,1.79,13.31,6.41,13.31h.43v1H200.83v-1h.46c4.53,0,6.47-3.51,6.47-13.31V671.69h-5.68v-1h13.57l11.17,29.73,10-29.73h12.82v1Z"/><path class="cls-1" d="M292.42,691c0,10.2-7.05,21.4-19.67,21.4s-19.67-11.2-19.67-21.4,7.08-21.41,19.67-21.41S292.42,680.79,292.42,691Zm-19.67-20.43c-9.66,0-12,10.42-12,20.43s2.38,20.42,12,20.42,12-10.42,12-20.42S282.44,670.58,272.75,670.58Z"/><path class="cls-1" d="M336.09,691.3c0,9.57-5.77,20-20.82,20H295.86v-1h5.28V671.69h-5.28v-1H313.7C328.84,670.7,336.09,680.45,336.09,691.3Zm-28-19.61v38.63h7.43c11.4,0,12.93-9.86,12.93-18.62,0-9.92-2-20-14.56-20Z"/><path class="cls-1" d="M371.79,697l-.67,14.27H339.83v-1h5.27V671.69h-5.27v-1h31l.47,13.6-1,0-.12-2.06c-.29-5.07-2.14-10.58-11.92-10.58h-6.26v18.65h2.29a13.77,13.77,0,0,0,2.78-.21c2.61-.58,4.18-3.59,4.38-7.36h1v16.1h-1c-.23-4.59-1.71-6.88-4.26-7.37a15.54,15.54,0,0,0-2.9-.2h-2.29v19h6.23c9.4,0,12-5.45,12.33-11.11l.12-2.2Z"/><path class="cls-1" d="M46.73,757.11c0,9.57-5.77,20-20.83,20H6.5v-1h5.28V737.5H6.5v-1H24.34C39.48,736.51,46.73,746.26,46.73,757.11Zm-28-19.61v38.63h7.43c11.4,0,12.93-9.86,12.93-18.62,0-9.92-2-20-14.56-20Z"/><path class="cls-1" d="M82.43,762.85l-.67,14.27H50.46v-1h5.28V737.5H50.46v-1h31l.47,13.6-1,0-.12-2.06C80.6,743,78.75,737.5,69,737.5H62.71v18.65H65a13.77,13.77,0,0,0,2.78-.21c2.61-.58,4.18-3.59,4.38-7.36h1v16.1h-1c-.23-4.59-1.71-6.88-4.26-7.37a15.54,15.54,0,0,0-2.9-.2H62.71v19h6.23c9.4,0,12-5.45,12.33-11.11l.12-2.2Z"/><path class="cls-1" d="M125.87,736.51v1h-.14c-3.57,0-5.63,1.56-11.14,16.41l-8.79,23.62h-1L90,737.5H86v-1h16.07v1H97.39l11.08,30.08,5.28-14.33a30.41,30.41,0,0,0,2.26-10.1c0-4.06-1.83-5.65-4.18-5.65h-.46v-1Z"/><path class="cls-1" d="M160.21,762.85l-.67,14.27h-31.3v-1h5.28V737.5h-5.28v-1h31l.46,13.6-1,0-.12-2.06c-.29-5.07-2.15-10.58-11.92-10.58h-6.27v18.65h2.29a13.92,13.92,0,0,0,2.79-.21c2.61-.58,4.18-3.59,4.38-7.36h1v16.1h-1c-.23-4.59-1.71-6.88-4.27-7.37a15.54,15.54,0,0,0-2.9-.2h-2.29v19h6.24c9.4,0,12-5.45,12.33-11.11l.11-2.2Z"/><path class="cls-1" d="M197.21,762.85l-.7,14.27H164.9v-1h5.28V737.5H164.9v-1h17.52v1h-5.28v38.63h6.55c9.29,0,12-5.28,12.39-11.14l.14-2.2Z"/><path class="cls-1" d="M244.37,737.5v38.63h5.28v1H232.13v-1h5.28v-38l-13.17,39h-1.11l-14.35-38.61v24.31c0,9.83,1.79,13.31,6.41,13.31h.43v1H200.83v-1h.46c4.53,0,6.47-3.51,6.47-13.31V737.5h-5.68v-1h13.57l11.17,29.73,10-29.73h12.82v1Z"/><path class="cls-1" d="M292.42,756.82c0,10.2-7.05,21.4-19.67,21.4s-19.67-11.2-19.67-21.4,7.08-21.41,19.67-21.41S292.42,746.6,292.42,756.82Zm-19.67-20.43c-9.66,0-12,10.42-12,20.43s2.38,20.42,12,20.42,12-10.42,12-20.42S282.44,736.39,272.75,736.39Z"/><path class="cls-1" d="M336.09,757.11c0,9.57-5.77,20-20.82,20H295.86v-1h5.28V737.5h-5.28v-1H313.7C328.84,736.51,336.09,746.26,336.09,757.11Zm-28-19.61v38.63h7.43c11.4,0,12.93-9.86,12.93-18.62,0-9.92-2-20-14.56-20Z"/><path class="cls-1" d="M371.79,762.85l-.67,14.27H339.83v-1h5.27V737.5h-5.27v-1h31l.47,13.6-1,0-.12-2.06c-.29-5.07-2.14-10.58-11.92-10.58h-6.26v18.65h2.29a13.77,13.77,0,0,0,2.78-.21c2.61-.58,4.18-3.59,4.38-7.36h1v16.1h-1c-.23-4.59-1.71-6.88-4.26-7.37a15.54,15.54,0,0,0-2.9-.2h-2.29v19h6.23c9.4,0,12-5.45,12.33-11.11l.12-2.2Z"/><path class="cls-1" d="M46.73,822.92c0,9.57-5.77,20-20.83,20H6.5v-1h5.28V803.31H6.5v-1H24.34C39.48,802.32,46.73,812.07,46.73,822.92Zm-28-19.61v38.63h7.43c11.4,0,12.93-9.86,12.93-18.62,0-9.92-2-20-14.56-20Z"/><path class="cls-1" d="M82.43,828.66l-.67,14.27H50.46v-1h5.28V803.31H50.46v-1h31l.47,13.6-1,0-.12-2.06c-.29-5.07-2.14-10.58-11.92-10.58H62.71V822H65a13.77,13.77,0,0,0,2.78-.21c2.61-.58,4.18-3.59,4.38-7.36h1v16.1h-1c-.23-4.59-1.71-6.88-4.26-7.37a15.54,15.54,0,0,0-2.9-.2H62.71v19h6.23c9.4,0,12-5.45,12.33-11.11l.12-2.2Z"/><path class="cls-1" d="M125.87,802.32v1h-.14c-3.57,0-5.63,1.56-11.14,16.41l-8.79,23.62h-1L90,803.31H86v-1h16.07v1H97.39l11.08,30.08,5.28-14.33A30.41,30.41,0,0,0,116,809c0-4.06-1.83-5.65-4.18-5.65h-.46v-1Z"/><path class="cls-1" d="M160.21,828.66l-.67,14.27h-31.3v-1h5.28V803.31h-5.28v-1h31l.46,13.6-1,0-.12-2.06c-.29-5.07-2.15-10.58-11.92-10.58h-6.27V822h2.29a13.92,13.92,0,0,0,2.79-.21c2.61-.58,4.18-3.59,4.38-7.36h1v16.1h-1c-.23-4.59-1.71-6.88-4.27-7.37a15.54,15.54,0,0,0-2.9-.2h-2.29v19h6.24c9.4,0,12-5.45,12.33-11.11l.11-2.2Z"/><path class="cls-1" d="M197.21,828.66l-.7,14.27H164.9v-1h5.28V803.31H164.9v-1h17.52v1h-5.28v38.63h6.55c9.29,0,12-5.28,12.39-11.14l.14-2.2Z"/><path class="cls-1" d="M244.37,803.31v38.63h5.28v1H232.13v-1h5.28V803.89l-13.17,39h-1.11l-14.35-38.61v24.31c0,9.83,1.79,13.31,6.41,13.31h.43v1H200.83v-1h.46c4.53,0,6.47-3.51,6.47-13.31V803.31h-5.68v-1h13.57l11.17,29.73,10-29.73h12.82v1Z"/><path class="cls-1" d="M292.42,822.63c0,10.2-7.05,21.4-19.67,21.4s-19.67-11.2-19.67-21.4,7.08-21.41,19.67-21.41S292.42,812.41,292.42,822.63ZM272.75,802.2c-9.66,0-12,10.42-12,20.43s2.38,20.42,12,20.42,12-10.42,12-20.42S282.44,802.2,272.75,802.2Z"/><path class="cls-1" d="M336.09,822.92c0,9.57-5.77,20-20.82,20H295.86v-1h5.28V803.31h-5.28v-1H313.7C328.84,802.32,336.09,812.07,336.09,822.92Zm-28-19.61v38.63h7.43c11.4,0,12.93-9.86,12.93-18.62,0-9.92-2-20-14.56-20Z"/><path class="cls-1" d="M371.79,828.66l-.67,14.27H339.83v-1h5.27V803.31h-5.27v-1h31l.47,13.6-1,0-.12-2.06c-.29-5.07-2.14-10.58-11.92-10.58h-6.26V822h2.29a13.77,13.77,0,0,0,2.78-.21c2.61-.58,4.18-3.59,4.38-7.36h1v16.1h-1c-.23-4.59-1.71-6.88-4.26-7.37a15.54,15.54,0,0,0-2.9-.2h-2.29v19h6.23c9.4,0,12-5.45,12.33-11.11l.12-2.2Z"/><path class="cls-1" d="M46.73,888.73c0,9.57-5.77,20-20.83,20H6.5v-1h5.28V869.12H6.5v-1H24.34C39.48,868.13,46.73,877.88,46.73,888.73Zm-28-19.61v38.63h7.43c11.4,0,12.93-9.86,12.93-18.62,0-9.92-2-20-14.56-20Z"/><path class="cls-1" d="M82.43,894.47l-.67,14.27H50.46v-1h5.28V869.12H50.46v-1h31l.47,13.6-1,0-.12-2.06c-.29-5.07-2.14-10.58-11.92-10.58H62.71v18.65H65a13.77,13.77,0,0,0,2.78-.21C70.39,887,72,884,72.16,880.2h1v16.1h-1c-.23-4.59-1.71-6.88-4.26-7.37a15.54,15.54,0,0,0-2.9-.2H62.71v19h6.23c9.4,0,12-5.45,12.33-11.11l.12-2.2Z"/><path class="cls-1" d="M125.87,868.13v1h-.14c-3.57,0-5.63,1.56-11.14,16.41l-8.79,23.62h-1L90,869.12H86v-1h16.07v1H97.39l11.08,30.08,5.28-14.33a30.41,30.41,0,0,0,2.26-10.1c0-4.06-1.83-5.65-4.18-5.65h-.46v-1Z"/><path class="cls-1" d="M160.21,894.47l-.67,14.27h-31.3v-1h5.28V869.12h-5.28v-1h31l.46,13.6-1,0-.12-2.06c-.29-5.07-2.15-10.58-11.92-10.58h-6.27v18.65h2.29a13.92,13.92,0,0,0,2.79-.21c2.61-.58,4.18-3.59,4.38-7.36h1v16.1h-1c-.23-4.59-1.71-6.88-4.27-7.37a15.54,15.54,0,0,0-2.9-.2h-2.29v19h6.24c9.4,0,12-5.45,12.33-11.11l.11-2.2Z"/><path class="cls-1" d="M197.21,894.47l-.7,14.27H164.9v-1h5.28V869.12H164.9v-1h17.52v1h-5.28v38.63h6.55c9.29,0,12-5.28,12.39-11.14l.14-2.2Z"/><path class="cls-1" d="M244.37,869.12v38.63h5.28v1H232.13v-1h5.28v-38l-13.17,39h-1.11l-14.35-38.61v24.31c0,9.83,1.79,13.31,6.41,13.31h.43v1H200.83v-1h.46c4.53,0,6.47-3.51,6.47-13.31V869.12h-5.68v-1h13.57l11.17,29.73,10-29.73h12.82v1Z"/><path class="cls-1" d="M292.42,888.44c0,10.2-7.05,21.4-19.67,21.4s-19.67-11.2-19.67-21.4S260.16,867,272.75,867,292.42,878.22,292.42,888.44ZM272.75,868c-9.66,0-12,10.42-12,20.43s2.38,20.42,12,20.42,12-10.42,12-20.42S282.44,868,272.75,868Z"/><path class="cls-1" d="M336.09,888.73c0,9.57-5.77,20-20.82,20H295.86v-1h5.28V869.12h-5.28v-1H313.7C328.84,868.13,336.09,877.88,336.09,888.73Zm-28-19.61v38.63h7.43c11.4,0,12.93-9.86,12.93-18.62,0-9.92-2-20-14.56-20Z"/><path class="cls-1" d="M371.79,894.47l-.67,14.27H339.83v-1h5.27V869.12h-5.27v-1h31l.47,13.6-1,0-.12-2.06c-.29-5.07-2.14-10.58-11.92-10.58h-6.26v18.65h2.29a13.77,13.77,0,0,0,2.78-.21c2.61-.58,4.18-3.59,4.38-7.36h1v16.1h-1c-.23-4.59-1.71-6.88-4.26-7.37a15.54,15.54,0,0,0-2.9-.2h-2.29v19h6.23c9.4,0,12-5.45,12.33-11.11l.12-2.2Z"/><path class="cls-1" d="M46.73,954.54c0,9.57-5.77,20-20.83,20H6.5v-1h5.28V934.93H6.5v-1H24.34C39.48,933.94,46.73,943.69,46.73,954.54Zm-28-19.61v38.63h7.43c11.4,0,12.93-9.86,12.93-18.62,0-9.92-2-20-14.56-20Z"/><path class="cls-1" d="M82.43,960.28l-.67,14.27H50.46v-1h5.28V934.93H50.46v-1h31l.47,13.6-1,0-.12-2.06c-.29-5.07-2.14-10.58-11.92-10.58H62.71v18.65H65a13.77,13.77,0,0,0,2.78-.21c2.61-.58,4.18-3.59,4.38-7.36h1v16.1h-1c-.23-4.59-1.71-6.88-4.26-7.37a15.54,15.54,0,0,0-2.9-.2H62.71v19h6.23c9.4,0,12-5.45,12.33-11.11l.12-2.2Z"/><path class="cls-1" d="M125.87,933.94v1h-.14c-3.57,0-5.63,1.56-11.14,16.41L105.8,975h-1L90,934.93H86v-1h16.07v1H97.39L108.47,965l5.28-14.33a30.41,30.41,0,0,0,2.26-10.1c0-4.06-1.83-5.65-4.18-5.65h-.46v-1Z"/><path class="cls-1" d="M160.21,960.28l-.67,14.27h-31.3v-1h5.28V934.93h-5.28v-1h31l.46,13.6-1,0-.12-2.06c-.29-5.07-2.15-10.58-11.92-10.58h-6.27v18.65h2.29a13.92,13.92,0,0,0,2.79-.21c2.61-.58,4.18-3.59,4.38-7.36h1v16.1h-1c-.23-4.59-1.71-6.88-4.27-7.37a15.54,15.54,0,0,0-2.9-.2h-2.29v19h6.24c9.4,0,12-5.45,12.33-11.11l.11-2.2Z"/><path class="cls-1" d="M197.21,960.28l-.7,14.27H164.9v-1h5.28V934.93H164.9v-1h17.52v1h-5.28v38.63h6.55c9.29,0,12-5.28,12.39-11.14l.14-2.2Z"/><path class="cls-1" d="M244.37,934.93v38.63h5.28v1H232.13v-1h5.28v-38l-13.17,39h-1.11l-14.35-38.61v24.31c0,9.83,1.79,13.31,6.41,13.31h.43v1H200.83v-1h.46c4.53,0,6.47-3.51,6.47-13.31V934.93h-5.68v-1h13.57l11.17,29.73,10-29.73h12.82v1Z"/><path class="cls-1" d="M292.42,954.25c0,10.2-7.05,21.4-19.67,21.4s-19.67-11.2-19.67-21.4,7.08-21.41,19.67-21.41S292.42,944,292.42,954.25Zm-19.67-20.43c-9.66,0-12,10.42-12,20.43s2.38,20.42,12,20.42,12-10.42,12-20.42S282.44,933.82,272.75,933.82Z"/><path class="cls-1" d="M336.09,954.54c0,9.57-5.77,20-20.82,20H295.86v-1h5.28V934.93h-5.28v-1H313.7C328.84,933.94,336.09,943.69,336.09,954.54Zm-28-19.61v38.63h7.43c11.4,0,12.93-9.86,12.93-18.62,0-9.92-2-20-14.56-20Z"/><path class="cls-1" d="M371.79,960.28l-.67,14.27H339.83v-1h5.27V934.93h-5.27v-1h31l.47,13.6-1,0-.12-2.06c-.29-5.07-2.14-10.58-11.92-10.58h-6.26v18.65h2.29a13.77,13.77,0,0,0,2.78-.21c2.61-.58,4.18-3.59,4.38-7.36h1v16.1h-1c-.23-4.59-1.71-6.88-4.26-7.37a15.54,15.54,0,0,0-2.9-.2h-2.29v19h6.23c9.4,0,12-5.45,12.33-11.11l.12-2.2Z"/></svg>