<svg id="Layer_1" data-name="Layer 1" xmlns="http://www.w3.org/2000/svg" viewBox="0 0 378.29 65.81"><defs><style>.cls-1{isolation:isolate;}.cls-2{fill:#fff;}</style></defs><title>develmode</title><g class="cls-1"><path class="cls-2" d="M46.73,33.2c0,9.57-5.77,20-20.82,20H6.5v-1h5.28V13.59H6.5v-1H24.34C39.48,12.6,46.73,22.35,46.73,33.2Zm-28-19.61V52.22h7.43c11.4,0,12.93-9.86,12.93-18.62,0-9.92-2-20-14.56-20Z"/><path class="cls-2" d="M82.43,38.94l-.67,14.27H50.46v-1h5.28V13.59H50.46v-1h31L82,26.2l-1,0-.12-2.06C80.6,19.1,78.75,13.59,69,13.59H62.71V32.24H65A13.77,13.77,0,0,0,67.78,32c2.61-.58,4.18-3.59,4.38-7.36h1v16.1h-1c-.23-4.59-1.71-6.88-4.26-7.37a15.54,15.54,0,0,0-2.9-.2H62.71v19h6.23c9.4,0,12-5.45,12.33-11.11l.12-2.2Z"/><path class="cls-2" d="M125.87,12.6v1h-.14c-3.57,0-5.63,1.56-11.14,16.41L105.8,53.62h-1L90,13.59H86v-1h16.07v1H97.39l11.08,30.08,5.28-14.33A30.41,30.41,0,0,0,116,19.24c0-4.06-1.83-5.65-4.18-5.65h-.46v-1Z"/><path class="cls-2" d="M160.21,38.94l-.67,14.27h-31.3v-1h5.28V13.59h-5.28v-1h31l.46,13.6-1,0-.12-2.06c-.29-5.07-2.15-10.58-11.92-10.58h-6.27V32.24h2.29a13.81,13.81,0,0,0,2.79-.21c2.61-.58,4.18-3.59,4.38-7.36h1v16.1h-1c-.23-4.59-1.71-6.88-4.26-7.37a15.65,15.65,0,0,0-2.91-.2h-2.29v19h6.24c9.4,0,12-5.45,12.33-11.11l.11-2.2Z"/><path class="cls-2" d="M197.21,38.94l-.7,14.27H164.9v-1h5.28V13.59H164.9v-1h17.52v1h-5.28V52.22h6.55c9.29,0,12-5.28,12.39-11.14l.14-2.2Z"/><path class="cls-2" d="M244.37,13.59V52.22h5.28v1H232.13v-1h5.28v-38l-13.17,39h-1.11L208.78,14.6V38.91c0,9.83,1.8,13.31,6.41,13.31h.43v1H200.83v-1h.46c4.53,0,6.47-3.51,6.47-13.31V13.59h-5.68v-1h13.57l11.17,29.73,10-29.73h12.82v1Z"/><path class="cls-2" d="M292.42,32.9c0,10.21-7.05,21.41-19.67,21.41s-19.66-11.2-19.66-21.41,7.07-21.4,19.66-21.4S292.42,22.69,292.42,32.9ZM272.75,12.48c-9.66,0-12,10.42-12,20.42s2.38,20.43,12,20.43,12-10.42,12-20.43S282.44,12.48,272.75,12.48Z"/><path class="cls-2" d="M336.09,33.2c0,9.57-5.77,20-20.82,20H295.86v-1h5.28V13.59h-5.28v-1H313.7C328.84,12.6,336.09,22.35,336.09,33.2Zm-28-19.61V52.22h7.43c11.4,0,12.94-9.86,12.94-18.62,0-9.92-2-20-14.57-20Z"/><path class="cls-2" d="M371.79,38.94l-.67,14.27H339.83v-1h5.28V13.59h-5.28v-1h31l.47,13.6-1,0-.12-2.06c-.29-5.07-2.14-10.58-11.92-10.58h-6.26V32.24h2.29a13.77,13.77,0,0,0,2.78-.21c2.61-.58,4.18-3.59,4.38-7.36h1v16.1h-1c-.23-4.59-1.71-6.88-4.26-7.37a15.54,15.54,0,0,0-2.9-.2h-2.29v19h6.23c9.4,0,12-5.45,12.33-11.11l.12-2.2Z"/></g></svg>