<?xml version="1.0" encoding="utf-8"?>
<!-- Generator: Adobe Illustrator 24.0.1, SVG Export Plug-In . SVG Version: 6.00 Build 0)  -->
<svg version="1.1" id="Layer_1" xmlns="http://www.w3.org/2000/svg" xmlns:xlink="http://www.w3.org/1999/xlink" x="0px" y="0px"
	 viewBox="0 0 258 92.9" style="enable-background:new 0 0 258 92.9;" xml:space="preserve">
<style type="text/css">
	.st0{fill:#FFFFFF;}
</style>
<title>flivo</title>
<g>
	<path id="Path_14" class="st0" d="M223.6,55.8c-6.9,0-13.4-2.6-18.5-7.2l-1.5-1.4l1.4-1.5c7.4-7.5,15.3-9,20.8-8.9
		c7.5,0.1,14.7,3.2,19.9,8.5l1.5,1.6l-1.7,1.3C245.3,48.4,235.6,55.9,223.6,55.8L223.6,55.8z M209.4,47c12.8,9.7,26.8,2.5,31.8-0.6
		c-4.3-3.6-9.8-5.6-15.4-5.7C219.6,40.6,213.8,42.9,209.4,47z"/>
	<path id="Path_15" class="st0" d="M201,42.4l-0.7-1.7c-1.8-4.2-1.7-8.9,0.4-13c2.3-4.3,6.4-7.4,11.2-8.6l1.9-0.4l0.4,1.9
		c1.4,5.6,0.7,17.2-11.5,21.3L201,42.4L201,42.4z M210.8,23.5c-2.8,1.2-5.1,3.3-6.6,5.9c-1.2,2.4-1.5,5.2-0.8,7.9
		C210.6,33.9,211.1,27,210.8,23.5z"/>
	<path id="Path_16" class="st0" d="M21.8,43.1H10.9v-5.9h10.9V20.8c-0.1-2.8,0.4-5.6,1.6-8.1c0.9-2,2.2-3.7,3.8-5.1
		c1.4-1.3,3.2-2.2,5-2.8c1.7-0.5,3.5-0.8,5.3-0.8c2.7-0.1,5.3,0.4,7.8,1.3l-1.4,5.7c-1.9-0.8-4-1.1-6.1-1c-6.1,0-9.2,4.5-9.2,13.4
		v14h12.2v5.8H28.6v44.3h-6.8L21.8,43.1L21.8,43.1z"/>
	<path id="Path_17" class="st0" d="M51.7,5.4h6.8v82.2h-6.8V5.4z"/>
	<path id="Path_18" class="st0" d="M75.4,17.8c-0.1-2.8,2.1-5.1,4.9-5.1c2.8-0.1,5.1,2.1,5.1,4.9c0.1,2.7-2.1,5-4.8,5.1h-0.2
		c-1.3,0-2.5-0.5-3.5-1.4C76,20.3,75.4,19.1,75.4,17.8z M77.1,37.5h6.8v50h-6.8V37.5z"/>
	<path id="Path_19" class="st0" d="M94.3,35.1h7.7l17.4,45l17-45h6.9l-20.6,52.4h-7L94.3,35.1z"/>
	<path id="Path_20" class="st0" d="M148.1,61.4c-0.1-3.8,0.6-7.5,2.1-11c1.3-3.3,3.2-6.3,5.7-8.8c2.5-2.5,5.4-4.5,8.7-5.8
		c3.5-1.4,7.3-2.1,11.1-2.1c3.8-0.1,7.5,0.6,11,2.1c6.6,2.6,11.9,7.9,14.5,14.5c2.7,7.1,2.7,15,0,22.1c-2.6,6.6-7.9,11.9-14.5,14.5
		c-3.5,1.4-7.3,2-11,2c-3.8,0.1-7.6-0.6-11.1-2c-3.3-1.3-6.2-3.3-8.7-5.8c-2.4-2.5-4.4-5.5-5.7-8.7
		C148.8,68.9,148.1,65.2,148.1,61.4z M154.9,61.4c0,2.8,0.5,5.7,1.4,8.3c1.8,5.1,5.7,9.3,10.7,11.4c5.5,2.3,11.7,2.3,17.2,0
		c2.5-1.1,4.7-2.7,6.6-4.6c1.8-2,3.2-4.3,4.1-6.8c1.9-5.4,1.9-11.3,0-16.7c-0.9-2.5-2.3-4.8-4.1-6.8c-1.9-2-4.1-3.5-6.6-4.6
		c-5.5-2.3-11.7-2.3-17.2,0c-2.5,1.1-4.7,2.6-6.6,4.6c-1.8,2-3.2,4.3-4.1,6.8C155.4,55.7,154.9,58.5,154.9,61.4z"/>
</g>
</svg>
