<svg id="Layer_1" data-name="Layer 1" xmlns="http://www.w3.org/2000/svg" viewBox="0 0 236.17 85.03"><defs><style>.cls-1{fill:#fff;}</style></defs><title>flivo</title><path id="Path_14" data-name="Path 14" class="cls-1" d="M212.65,51.89a27.22,27.22,0,0,1-18.48-7.23l-1.55-1.36L194,41.81c7.37-7.49,15.32-9,20.8-8.91a28.43,28.43,0,0,1,19.9,8.53L236.17,43l-1.68,1.29c-.13.13-9.83,7.62-21.84,7.62ZM198.44,43.1c12.79,9.69,26.81,2.52,31.79-.58a24.66,24.66,0,0,0-15.44-5.69,23,23,0,0,0-16.35,6.27Z"/><path id="Path_15" data-name="Path 15" class="cls-1" d="M190.1,38.45l-.71-1.74a15.2,15.2,0,0,1,.39-13A17.31,17.31,0,0,1,201,15.13l1.87-.45.45,1.87c1.36,5.56.71,17.19-11.5,21.32l-1.68.59Zm9.76-18.86a13.65,13.65,0,0,0-6.59,5.94,11.12,11.12,0,0,0-.84,7.89c7.24-3.43,7.76-10.34,7.43-13.83Z"/><path id="Path_16" data-name="Path 16" class="cls-1" d="M10.86,39.2H0V33.31H10.85V16.88a18.78,18.78,0,0,1,1.56-8.13,15.2,15.2,0,0,1,3.81-5.14,13.58,13.58,0,0,1,5-2.79A19,19,0,0,1,26.56,0a20.29,20.29,0,0,1,7.82,1.3L33,7a14.17,14.17,0,0,0-6.14-1c-6.14,0-9.17,4.46-9.17,13.39v14H29.92V39.2H17.7V83.54H10.92V39.2Z"/><path id="Path_17" data-name="Path 17" class="cls-1" d="M40.81,1.43h6.78V83.6H40.81Z"/><path id="Path_18" data-name="Path 18" class="cls-1" d="M64.48,13.81a5,5,0,1,1,5.21,4.87h-.23A4.9,4.9,0,0,1,66,17.26,4.73,4.73,0,0,1,64.48,13.81Zm1.75,19.75H73v50H66.23Z"/><path id="Path_19" data-name="Path 19" class="cls-1" d="M83.34,31.2H91l17.44,45,17-45h6.91L111.77,83.6h-7Z"/><path id="Path_20" data-name="Path 20" class="cls-1" d="M137.22,57.43a28,28,0,0,1,2.07-11A26.75,26.75,0,0,1,145,37.66a24.92,24.92,0,0,1,8.73-5.75,31.22,31.22,0,0,1,11.11-2.07,28.11,28.11,0,0,1,11.05,2.07,25.72,25.72,0,0,1,14.47,14.48,31,31,0,0,1,0,22.1A25.68,25.68,0,0,1,175.86,83,29.65,29.65,0,0,1,164.81,85,28.55,28.55,0,0,1,153.7,83,24.92,24.92,0,0,1,145,77.21a26.82,26.82,0,0,1-5.68-8.72A28.48,28.48,0,0,1,137.22,57.43Zm6.78,0a24.46,24.46,0,0,0,1.43,8.34,19.37,19.37,0,0,0,10.72,11.37,22.79,22.79,0,0,0,17.25,0A21.14,21.14,0,0,0,180,72.55a19.89,19.89,0,0,0,4.14-6.78,25.47,25.47,0,0,0,0-16.67A19.93,19.93,0,0,0,180,42.31a19.51,19.51,0,0,0-6.59-4.58,22.79,22.79,0,0,0-17.25,0,21.11,21.11,0,0,0-6.59,4.58,19.75,19.75,0,0,0-4.13,6.79A24.36,24.36,0,0,0,144,57.43Z"/></svg>