<svg id="Layer_1" data-name="Layer 1" xmlns="http://www.w3.org/2000/svg" viewBox="0 0 441.68 86"><defs><style>.cls-1{fill:#fff;}</style></defs><title>planit</title><path class="cls-1" d="M0,82.2q7.17-.67,9-2.84c1.18-1.44,1.78-4.75,1.78-9.91V15.08q0-6.55-2-8.64C7.41,5.05,4.49,4.17,0,3.8V1.47H33.1Q49,1.47,57.49,7.66T66,24q0,12.81-9.38,18.57T33.1,48.3c-1.35,0-3.08,0-5.18-.09s-3.67-.09-4.69-.09v22.8q0,7.06,2.18,8.9t9.71,2.38v2.33H0ZM42.35,8.46A33.86,33.86,0,0,0,28.87,6.13c-2.58,0-4.16.25-4.75.77s-.89,1.64-.89,3.4V43c2.25.2,3.72.32,4.41.37s1.37.06,2,.06q8.64,0,13.6-2.45,9-4.48,9-16.74Q52.28,12.75,42.35,8.46Z"/><path class="cls-1" d="M69.2,82.2q6.93-.74,9-2.47t2-8.81V15.08q0-6.69-2-8.74C76.86,5,73.86,4.13,69.2,3.8V1.47h35.43V3.8c-4.62.25-7.71,1-9.29,2.27S93,10.05,93,14.22V74.54a6.47,6.47,0,0,0,.71,3.28q.7,1.19,3.09,1.5c1,.12,1.94.2,3,.24s3,.07,5.86.07q16.74,0,22.64-2.76t11.42-14.1h3.19l-6.14,21.76H69.2Z"/><path class="cls-1" d="M146.32,84.53V82.2a10.18,10.18,0,0,0,7.26-3.65q2.43-3.09,8.31-16.94L188,0h2.5l31.28,71.17q3.13,7.06,5,8.74c1.24,1.12,3.34,1.88,6.28,2.29v2.33H201.17V82.2c3.66-.33,6-.73,7.09-1.2s1.59-1.61,1.59-3.44a15.67,15.67,0,0,0-.61-3.23,34.58,34.58,0,0,0-1.72-4.88l-5-12.07H169.42q-4.89,12.32-5.85,15a14.15,14.15,0,0,0-.95,4.3,4.44,4.44,0,0,0,2.58,4.4,20.61,20.61,0,0,0,6,1.1v2.33Zm54.06-32.25L186,17.71,171.54,52.28Z"/><path class="cls-1" d="M236.53,82.2q7.78-.8,10-3.52T248.73,66V10.72L247,8.7q-2.76-3.24-4.69-4a18,18,0,0,0-5.79-.89V1.47H258l48.46,60.06V19.82q0-10.31-3.07-13.4-2-2-8.95-2.62V1.47h29.49V3.8c-4.79.49-8,1.66-9.57,3.49s-2.39,6.05-2.39,12.63V86h-2.14L254.25,17.16V66q0,10.29,3,13.41,2,2,8.76,2.76v2.33H236.53Z"/><path class="cls-1" d="M327.8,82.2q7.67-.56,9.93-2.29c1.51-1.15,2.27-4.16,2.27-9V15.08q0-6.93-2.27-8.92T327.8,3.8V1.47h37.14V3.8q-7.67.38-9.93,2.36t-2.27,8.92V70.92c0,4.83.76,7.84,2.27,9s4.82,1.92,9.93,2.29v2.33H327.8Z"/><path class="cls-1" d="M370,1.47h71l.67,21.33h-3q-2.21-10-5.61-13.08t-14.31-3h-7V70.92c0,4.83.76,7.84,2.27,9s4.82,1.92,9.93,2.29v2.33H387.38V82.2q8-.61,9.92-2.63c1.31-1.33,2-4.72,2-10.12V6.68h-7q-10.43,0-14.19,3T372.36,22.8h-3.07Z"/></svg>