<?xml version="1.0" encoding="utf-8"?>
<!-- Generator: Adobe Illustrator 24.0.1, SVG Export Plug-In . SVG Version: 6.00 Build 0)  -->
<svg version="1.1" id="Layer_1" xmlns="http://www.w3.org/2000/svg" xmlns:xlink="http://www.w3.org/1999/xlink" x="0px" y="0px"
	 viewBox="0 0 426.8 76.9" style="enable-background:new 0 0 426.8 76.9;" xml:space="preserve">
<style type="text/css">
	.st0{fill:#FFFFFF;}
</style>
<title>planit</title>
<path class="st0" d="M16,73.5c4.3-0.4,7-1.2,8-2.5c1.1-1.3,1.6-4.2,1.6-8.9V13.5c0-3.9-0.6-6.5-1.8-7.7c-1.2-1.2-3.8-2-7.8-2.4V1.3
	h29.6c9.5,0,16.7,1.8,21.8,5.5S75,15.4,75,21.5c0,7.6-2.8,13.2-8.4,16.6c-5.6,3.4-12.6,5.1-21,5.1c-1.2,0-2.8,0-4.6-0.1
	C39.1,43,37.7,43,36.8,43v20.4c0,4.2,0.6,6.9,1.9,8c1.3,1.1,4.2,1.8,8.7,2.1v2.1H16V73.5z M53.9,7.6c-3.8-1.5-7.9-2.2-12-2.1
	c-2.3,0-3.7,0.2-4.2,0.7c-0.5,0.5-0.8,1.5-0.8,3v29.2c2,0.2,3.3,0.3,3.9,0.3c0.6,0,1.2,0.1,1.8,0.1c5.1,0,9.2-0.7,12.2-2.2
	c5.4-2.7,8-7.7,8-15C62.7,14.8,59.8,10.1,53.9,7.6z"/>
<path class="st0" d="M77.8,73.5c4.1-0.4,6.8-1.2,8-2.2s1.8-3.7,1.8-7.9V13.5c0-4-0.6-6.6-1.8-7.8c-1.2-1.2-3.9-2-8-2.3V1.3h31.7v2.1
	c-4.1,0.2-6.9,0.9-8.3,2c-1.4,1.1-2.1,3.6-2.1,7.3v53.9c0,1,0.2,2,0.6,2.9c0.4,0.7,1.3,1.2,2.8,1.3c0.9,0.1,1.7,0.2,2.7,0.2
	s2.7,0.1,5.2,0.1c10,0,16.7-0.8,20.2-2.5c3.5-1.6,6.9-5.8,10.2-12.6h2.9l-5.5,19.4H77.8V73.5z"/>
<path class="st0" d="M146.8,75.6v-2.1c2.5-0.1,4.9-1.3,6.5-3.3c1.4-1.8,3.9-6.9,7.4-15.1L184,0h2.2l28,63.6c1.9,4.2,3.4,6.8,4.5,7.8
	c1.1,1,3,1.7,5.6,2v2.1h-28.5v-2.1c3.3-0.3,5.4-0.7,6.3-1.1c1-0.4,1.4-1.4,1.4-3.1c-0.1-1-0.3-1.9-0.5-2.9c-0.4-1.5-0.9-2.9-1.5-4.4
	L197,51.3h-29.6c-2.9,7.3-4.7,11.8-5.2,13.4c-0.5,1.2-0.8,2.5-0.8,3.8c-0.1,1.7,0.8,3.2,2.3,3.9c1.7,0.6,3.5,0.9,5.4,1v2.1
	L146.8,75.6z M195.1,46.7l-12.9-30.9l-12.9,30.9H195.1z"/>
<path class="st0" d="M227.4,73.5c4.6-0.5,7.6-1.5,8.9-3.1c1.3-1.6,2-5.4,2-11.3V9.6l-1.5-1.8c-1.6-1.9-3-3.1-4.2-3.6
	c-1.7-0.5-3.4-0.8-5.2-0.8V1.3h19.2L289.9,55V17.7c0-6.1-0.9-10.1-2.7-12c-1.2-1.2-3.9-2-8-2.3V1.3h26.4v2.1
	c-4.3,0.4-7.2,1.5-8.6,3.1c-1.4,1.6-2.1,5.4-2.1,11.3v59.1h-1.9l-49.7-61.5V59c0,6.1,0.9,10.1,2.7,12c1.2,1.2,3.8,2,7.8,2.5v2.1
	h-26.3V73.5z"/>
<path class="st0" d="M309,73.5c4.6-0.3,7.5-1,8.9-2c1.3-1,2-3.7,2-8V13.5c0-4.1-0.7-6.8-2-8s-4.3-1.9-8.9-2.1V1.3h33.2v2.1
	c-4.6,0.2-7.5,0.9-8.9,2.1c-1.3,1.2-2,3.8-2,8v49.9c0,4.3,0.7,7,2,8c1.3,1,4.3,1.7,8.9,2v2.1H309V73.5z"/>
<path class="st0" d="M346.7,1.3h63.5l0.6,19.1h-2.7c-1.3-6-3-9.9-5-11.7c-2-1.8-6.3-2.7-12.8-2.7H384v57.4c0,4.3,0.7,7,2,8
	c1.3,1,4.3,1.7,8.9,2v2.1h-32.7v-2.1c4.8-0.4,7.7-1.1,8.9-2.4c1.2-1.2,1.8-4.2,1.8-9V6h-6.3c-6.2,0-10.4,0.9-12.7,2.7
	s-4,5.7-5.1,11.7h-2.7L346.7,1.3z"/>
</svg>
